<svg xmlns="http://www.w3.org/2000/svg" width="581" height="124" viewBox="0 0 581 124" fill="none"><g clip-path="url(#clip0_691_5570)"><path d="M148.129 105.522C147.308 104.534 147.308 103.217 148.293 101.899L160.618 87.8844C161.766 86.5669 162.915 86.0729 164.4 87.2257C172.286 94.4801 178.202 97.782 186.252 97.782C193.481 97.782 198.905 95.4764 198.905 88.8808C198.905 83.2732 194.794 81.6264 188.385 78.8267L174.419 72.3957C162.259 66.7882 150.098 58.0516 150.098 39.4175C150.098 17.1602 166.854 5.28638 187.228 5.28638C201.03 5.28638 212.37 10.5645 222.39 20.7833C223.374 21.6067 223.538 23.0889 222.554 24.4146L210.393 39.0881C209.572 40.4056 208.259 40.8996 206.938 40.0762C199.545 34.1393 194.285 31.5043 188.205 31.5043C181.304 31.5043 177.685 34.9709 177.685 39.7468C177.685 45.6837 182.124 47.0012 190.338 50.7972L201.514 55.746C213.511 61.3536 226.656 69.102 226.656 89.0537C226.656 113.954 205.954 124.008 186.892 124.008C167.83 124.008 155.013 114.778 148.112 105.539L148.129 105.522Z" fill="#121212"></path><path d="M235.198 81.6182C235.198 57.8787 253.111 39.2446 277.753 39.2446C302.394 39.2446 320.143 57.8787 320.143 81.6182C320.143 105.358 302.23 123.992 277.753 123.992C253.275 123.992 235.198 105.358 235.198 81.6182ZM277.753 98.5973C286.459 98.5973 293.688 92.331 293.688 81.6182C293.688 70.9054 286.459 64.6391 277.753 64.6391C269.046 64.6391 261.653 70.9054 261.653 81.6182C261.653 92.331 268.882 98.5973 277.753 98.5973Z" fill="#121212"></path><path d="M327.626 81.1241C327.626 57.3847 345.375 39.2446 369.688 39.2446C383.326 39.2446 394.338 45.1815 401.239 54.2474C402.223 55.4002 401.895 56.8824 400.91 57.8705L388.257 70.0737C387.109 71.2265 384.967 71.3912 383.818 70.0737C379.707 66.2777 375.768 64.6308 371.001 64.6308C360.153 64.6308 354.081 72.2146 354.081 81.1159C354.081 90.0171 360.161 98.5973 371.502 98.5973C375.941 98.5973 379.879 96.9504 383.99 92.9897C385.139 91.8369 387.281 92.0016 388.43 93.1544L401.083 105.358C402.068 106.346 402.396 107.828 401.411 108.989C394.51 118.055 383.498 123.992 370.517 123.992C345.703 123.992 327.634 105.358 327.634 81.1241H327.626Z" fill="#121212"></path><path d="M410.479 14.8382C410.479 6.59566 416.723 0 425.429 0C434.135 0 440.38 6.59566 440.38 14.8382C440.38 23.0807 433.971 29.841 425.429 29.841C416.887 29.841 410.479 23.2454 410.479 14.8382ZM411.463 43.8558C411.463 42.3736 412.612 41.2208 414.089 41.2208L436.761 41.2208C438.238 41.2208 439.387 42.3736 439.387 43.8558V119.372C439.387 120.855 438.238 122.007 436.761 122.007H414.089C412.612 122.007 411.463 120.855 411.463 119.372V43.8558Z" fill="#121212"></path><path d="M450.35 81.6182C450.35 57.8787 465.628 39.2446 487.817 39.2446C499.157 39.2446 506.878 43.3699 511.966 50.4597L512.294 43.864C512.294 42.3818 513.443 41.229 514.92 41.229L535.294 41.229C536.771 41.229 537.92 42.3818 537.92 43.864V119.381C537.92 120.863 536.607 122.016 535.13 122.016H514.92C513.443 122.016 512.294 120.863 512.294 119.381L511.966 112.62C506.542 119.71 498.82 124 487.817 124C465.637 124 450.35 105.531 450.35 81.6264V81.6182ZM494.053 98.9349C503.744 98.9349 510.48 92.0098 510.48 81.4535C510.48 70.8971 503.744 64.3097 494.053 64.3097C484.362 64.3097 477.297 71.2347 477.297 81.6264C477.297 92.0181 484.526 98.9431 494.053 98.9431V98.9349Z" fill="#121212"></path><path d="M553.232 119.372V6.76034C553.232 5.27817 554.381 4.12537 555.858 4.12537L578.366 4.12537C579.843 4.12537 580.992 5.27817 580.992 6.76034V119.372C580.992 120.855 579.843 122.007 578.366 122.007H555.858C554.381 122.007 553.232 120.855 553.232 119.372Z" fill="#121212"></path><path d="M59.1872 97.535C59.1872 96.1599 58.1205 95.0483 56.7584 94.9412C41.1759 93.6979 28.9249 80.6136 28.9249 64.6638C28.9249 48.714 41.1841 35.6297 56.7584 34.3863C58.1205 34.2793 59.1872 33.1677 59.1872 31.7925L59.1872 7.9296C59.1872 6.44743 57.9564 5.26169 56.4876 5.32757C25.0518 6.74387 0 32.7724 0 64.6638C0 96.5551 25.0518 122.584 56.4876 124C57.9564 124.066 59.1872 122.88 59.1872 121.398L59.1872 97.535Z" fill="#121212"></path><path d="M100.404 5.26996L75.8196 5.26996C74.6232 5.26996 73.6533 6.24322 73.6533 7.44381V32.1137C73.6533 33.3143 74.6232 34.2876 75.8196 34.2876H100.404C101.6 34.2876 102.57 33.3143 102.57 32.1137V7.44381C102.57 6.24322 101.6 5.26996 100.404 5.26996Z" fill="#121212"></path></g><defs><clipPath id="clip0_691_5570"><rect width="581" height="124" fill="white"></rect></clipPath></defs></svg>